{"glyphs":{"0":{"ha":1115,"x_min":99,"x_max":1017,"o":"m 1017 917 l 99 917 l 99 0 l 1017 0 l 1017 917 m 786 688 l 786 229 l 329 229 l 329 688 l 786 688 m 446 585 l 446 336 l 675 336 l 675 585 l 446 585 z "},"1":{"ha":935,"x_min":99,"x_max":836,"o":"m 454 225 l 101 224 l 101 -3 l 836 -3 l 836 225 l 683 225 l 683 913 l 99 913 l 99 682 l 454 682 l 454 225 z "},"2":{"ha":1115,"x_min":99,"x_max":1017,"o":"m 101 690 l 786 690 l 786 574 l 99 574 l 99 0 l 1017 0 l 1017 229 l 329 229 l 329 342 l 1017 342 l 1017 917 l 101 917 l 101 690 z "},"3":{"ha":1115,"x_min":99,"x_max":1017,"o":"m 99 342 l 99 575 l 786 575 l 786 690 l 99 690 l 99 917 l 1017 917 l 1017 0 l 99 0 l 99 229 l 786 229 l 786 342 l 99 342 z "},"4":{"ha":1156,"x_min":99,"x_max":1056,"o":"m 701 410 l 701 181 l 99 181 l 99 413 l 733 917 l 1056 917 l 1056 0 l 825 0 l 825 688 l 474 410 l 701 410 z "},"5":{"ha":1115,"x_min":99,"x_max":1017,"o":"m 781 693 l 329 690 l 329 574 l 1017 574 l 1017 0 l 99 0 l 99 229 l 786 229 l 786 342 l 99 342 l 99 915 l 781 915 l 781 693 z "},"6":{"ha":1115,"x_min":99,"x_max":1017,"o":"m 1017 575 l 1017 0 l 99 0 l 99 917 l 1017 917 l 1017 688 l 329 688 l 329 575 l 1017 575 m 786 342 l 329 342 l 329 228 l 786 228 l 786 342 z "},"7":{"ha":1039,"x_min":99,"x_max":939,"o":"m 99 914 l 99 688 l 711 688 l 711 392 l 433 114 l 596 -47 l 939 296 l 939 914 l 99 914 z "},"8":{"ha":1115,"x_min":99,"x_max":1017,"o":"m 1017 0 l 99 0 l 99 917 l 1017 917 l 1017 0 m 786 575 l 786 689 l 329 689 l 329 575 l 786 575 m 329 342 l 329 229 l 786 229 l 786 342 l 329 342 z "},"9":{"ha":1115,"x_min":99,"x_max":1017,"o":"m 99 342 l 99 917 l 1017 917 l 1017 0 l 99 0 l 99 229 l 786 229 l 786 342 l 99 342 m 329 575 l 786 575 l 786 689 l 329 689 l 329 575 z "}," ":{"ha":551,"x_min":0,"x_max":0,"o":""}," ":{"ha":551,"x_min":0,"x_max":0,"o":""},"!":{"ha":429,"x_min":99,"x_max":331,"o":"m 331 358 l 329 917 l 101 917 l 101 358 l 331 358 m 329 0 l 329 249 l 99 249 l 99 0 l 329 0 z "},"\"":{"ha":764,"x_min":99,"x_max":665,"o":"m 665 458 l 665 917 l 435 917 l 435 458 l 665 458 m 329 457 l 329 915 l 99 915 l 99 457 l 329 457 z "},"#":{"ha":1329,"x_min":99,"x_max":1231,"o":"m 1228 401 l 1228 172 l 1032 172 l 1032 0 l 801 0 l 801 172 l 508 172 l 508 0 l 279 0 l 279 172 l 99 172 l 99 401 l 279 401 l 279 517 l 101 517 l 101 746 l 279 746 l 279 917 l 508 917 l 508 746 l 801 746 l 801 917 l 1032 917 l 1032 746 l 1231 746 l 1231 517 l 1032 517 l 1032 401 l 1228 401 m 508 517 l 508 401 l 801 401 l 801 517 l 508 517 z "},"$":{"ha":1115,"x_min":99,"x_max":1017,"o":"m 675 -187 l 446 -187 l 446 0 l 99 0 l 99 229 l 446 229 l 446 342 l 99 342 l 99 917 l 444 917 l 444 1101 l 675 1101 l 675 917 l 1014 917 l 1014 690 l 675 690 l 675 574 l 1017 574 l 1017 0 l 675 0 l 675 -187 m 329 690 l 329 574 l 446 574 l 446 690 l 329 690 m 675 342 l 675 229 l 786 229 l 786 342 l 675 342 z "},"%":{"ha":1453,"x_min":99,"x_max":1354,"o":"m 547 -43 l 351 76 l 890 960 l 1086 840 l 547 -43 m 235 606 l 422 606 l 422 792 l 235 792 l 235 606 m 558 928 l 558 469 l 99 469 l 99 928 l 558 928 m 1032 136 l 1218 136 l 1218 322 l 1032 322 l 1032 136 m 1354 458 l 1354 0 l 896 0 l 896 458 l 1354 458 z "},"&":{"ha":1065,"x_min":99,"x_max":965,"o":"m 331 229 l 807 229 l 807 0 l 99 0 l 99 915 l 808 915 l 808 765 l 614 574 l 965 574 l 965 344 l 331 344 l 331 229 m 464 708 l 331 708 l 331 574 l 464 708 z "},"'":{"ha":428,"x_min":99,"x_max":329,"o":"m 329 458 l 99 458 l 99 917 l 329 917 l 329 458 z "},"(":{"ha":581,"x_min":99,"x_max":481,"o":"m 99 917 l 99 0 l 481 0 l 481 229 l 329 229 l 329 688 l 481 688 l 481 917 l 99 917 z "},")":{"ha":581,"x_min":99,"x_max":481,"o":"m 481 917 l 481 0 l 99 0 l 99 229 l 253 229 l 253 688 l 99 688 l 99 917 l 481 917 z "},"*":{"ha":690,"x_min":99,"x_max":592,"o":"m 232 888 l 99 1019 l 211 1133 l 344 1003 l 475 1135 l 590 1024 l 458 890 l 592 760 l 479 644 l 347 776 l 215 643 l 101 754 l 232 888 z "},"+":{"ha":963,"x_min":99,"x_max":863,"o":"m 367 574 l 367 840 l 596 840 l 596 574 l 863 574 l 863 344 l 596 344 l 596 76 l 367 76 l 367 344 l 99 344 l 99 574 l 367 574 z "},",":{"ha":428,"x_min":99,"x_max":329,"o":"m 99 249 l 99 -211 l 329 -211 l 329 249 l 99 249 z "},"-":{"ha":963,"x_min":99,"x_max":863,"o":"m 863 574 l 863 344 l 99 344 l 99 574 l 863 574 z "},".":{"ha":428,"x_min":99,"x_max":329,"o":"m 99 249 l 329 249 l 329 0 l 99 0 l 99 249 z "},"/":{"ha":778,"x_min":18,"x_max":753,"o":"m 214 -43 l 18 76 l 558 960 l 753 840 l 214 -43 z "},":":{"ha":428,"x_min":99,"x_max":329,"o":"m 99 249 l 329 249 l 329 0 l 99 0 l 99 249 m 99 822 l 329 822 l 329 574 l 99 574 l 99 822 z "},";":{"ha":428,"x_min":99,"x_max":329,"o":"m 99 822 l 99 574 l 329 574 l 329 822 l 99 822 m 99 249 l 99 -211 l 329 -211 l 329 249 l 99 249 z "},"<":{"ha":863,"x_min":22,"x_max":764,"o":"m 461 0 l 764 0 l 340 461 l 764 914 l 461 914 l 22 468 l 461 0 z "},"=":{"ha":964,"x_min":99,"x_max":865,"o":"m 865 760 l 101 760 l 101 531 l 865 531 l 865 760 m 863 415 l 99 415 l 99 186 l 863 186 l 863 415 z "},">":{"ha":865,"x_min":99,"x_max":840,"o":"m 401 0 l 99 0 l 522 461 l 99 914 l 401 914 l 840 468 l 401 0 z "},"?":{"ha":1115,"x_min":99,"x_max":1017,"o":"m 101 690 l 786 690 l 786 574 l 99 574 l 99 342 l 1017 342 l 1017 917 l 101 917 l 101 690 m 99 249 l 99 0 l 329 0 l 329 249 l 99 249 z "},"@":{"ha":1110,"x_min":99,"x_max":1010,"o":"m 1010 993 l 1010 168 l 454 168 l 454 626 l 781 626 l 781 764 l 329 764 l 329 36 l 863 36 l 863 -189 l 99 -189 l 99 993 l 1010 993 m 819 469 l 615 469 l 615 325 l 819 325 l 819 469 z "},"A":{"ha":1115,"x_min":99,"x_max":1017,"o":"m 99 575 l 99 0 l 1017 0 l 1017 917 l 99 917 l 99 688 l 786 688 l 786 228 l 329 228 l 329 344 l 518 344 l 518 575 l 99 575 z "},"B":{"ha":1118,"x_min":99,"x_max":1019,"o":"m 1019 -3 l 103 -3 l 103 0 l 99 0 l 99 1146 l 329 1146 l 329 914 l 682 914 l 1019 617 l 1019 -3 m 786 229 l 786 525 l 610 685 l 332 685 l 332 229 l 786 229 z "},"C":{"ha":1115,"x_min":99,"x_max":1017,"o":"m 99 0 l 99 621 l 396 917 l 1017 917 l 1017 688 l 490 688 l 329 525 l 329 229 l 1017 229 l 1017 0 l 99 0 z "},"D":{"ha":1115,"x_min":99,"x_max":1017,"o":"m 1017 917 l 1017 296 l 719 0 l 99 0 l 99 917 l 1017 917 m 786 688 l 329 688 l 329 229 l 625 229 l 786 392 l 786 688 z "},"E":{"ha":1115,"x_min":99,"x_max":1017,"o":"m 1017 342 l 1017 917 l 99 917 l 99 0 l 1017 0 l 1017 229 l 329 229 l 329 689 l 786 689 l 786 574 l 597 574 l 597 342 l 1017 342 z "},"F":{"ha":1064,"x_min":99,"x_max":964,"o":"m 964 688 l 329 688 l 329 494 l 828 494 l 828 265 l 329 265 l 329 0 l 99 0 l 99 917 l 964 917 l 964 688 z "},"G":{"ha":1115,"x_min":99,"x_max":1017,"o":"m 1017 575 l 1017 0 l 99 0 l 99 917 l 1017 917 l 1017 688 l 329 688 l 329 228 l 786 228 l 786 344 l 597 344 l 597 575 l 1017 575 z "},"H":{"ha":1064,"x_min":99,"x_max":964,"o":"m 735 0 l 735 344 l 329 344 l 329 0 l 99 0 l 99 917 l 329 917 l 329 574 l 733 574 l 733 917 l 964 917 l 964 0 l 735 0 z "},"I":{"ha":428,"x_min":99,"x_max":329,"o":"m 329 0 l 99 0 l 99 917 l 329 917 l 329 0 z "},"J":{"ha":1065,"x_min":99,"x_max":965,"o":"m 583 686 l 583 229 l 229 229 l 229 -1 l 813 -1 l 813 686 l 965 686 l 965 914 l 99 914 l 99 686 l 583 686 z "},"K":{"ha":1064,"x_min":99,"x_max":964,"o":"m 735 0 l 735 344 l 329 344 l 329 0 l 99 0 l 99 917 l 329 917 l 329 574 l 674 917 l 964 917 l 619 574 l 964 574 l 964 0 l 735 0 z "},"L":{"ha":1039,"x_min":99,"x_max":939,"o":"m 99 0 l 99 917 l 329 917 l 329 229 l 939 229 l 939 0 l 99 0 z "},"M":{"ha":1307,"x_min":99,"x_max":1207,"o":"m 550 688 l 550 0 l 779 0 l 779 688 l 978 688 l 978 0 l 1207 0 l 1207 917 l 396 917 l 99 621 l 99 0 l 329 0 l 329 525 l 490 688 l 550 688 z "},"N":{"ha":1307,"x_min":99,"x_max":1207,"o":"m 329 688 l 815 688 l 978 525 l 978 0 l 1207 0 l 1207 621 l 911 917 l 99 917 l 99 0 l 329 0 l 329 688 z "},"O":{"ha":1115,"x_min":99,"x_max":1017,"o":"m 1017 917 l 1017 0 l 99 0 l 99 917 l 1017 917 m 786 688 l 329 688 l 329 229 l 786 229 l 786 688 z "},"P":{"ha":1064,"x_min":99,"x_max":964,"o":"m 99 0 l 329 0 l 329 344 l 964 344 l 964 917 l 99 917 l 99 0 m 735 688 l 735 574 l 329 574 l 329 688 l 735 688 z "},"Q":{"ha":1118,"x_min":99,"x_max":1019,"o":"m 99 917 l 1017 917 l 1017 914 l 1019 914 l 1019 -232 l 790 -232 l 790 0 l 438 0 l 99 296 l 99 917 m 332 685 l 332 388 l 490 229 l 786 229 l 786 685 l 332 685 z "},"R":{"ha":1064,"x_min":99,"x_max":964,"o":"m 99 0 l 99 917 l 964 917 l 964 344 l 619 344 l 964 0 l 674 0 l 329 344 l 329 0 l 99 0 m 735 688 l 329 688 l 329 574 l 735 574 l 735 688 z "},"S":{"ha":1115,"x_min":99,"x_max":1017,"o":"m 1014 690 l 329 690 l 329 574 l 1017 574 l 1017 0 l 99 0 l 99 229 l 786 229 l 786 342 l 99 342 l 99 917 l 1014 917 l 1014 690 z "},"T":{"ha":1065,"x_min":99,"x_max":965,"o":"m 481 686 l 481 229 l 836 229 l 836 -1 l 253 -1 l 253 686 l 99 686 l 99 914 l 965 914 l 965 686 l 481 686 z "},"U":{"ha":1115,"x_min":99,"x_max":1017,"o":"m 1017 0 l 99 0 l 99 917 l 329 917 l 329 229 l 786 229 l 786 917 l 1017 917 l 1017 0 z "},"V":{"ha":1128,"x_min":17,"x_max":1028,"o":"m 17 824 l 217 935 l 599 229 l 797 229 l 797 917 l 1028 917 l 1028 0 l 464 0 l 17 824 z "},"W":{"ha":1307,"x_min":99,"x_max":1207,"o":"m 756 229 l 815 229 l 978 392 l 978 917 l 1207 917 l 1207 296 l 911 0 l 99 0 l 99 917 l 329 917 l 329 229 l 528 229 l 528 917 l 756 917 l 756 229 z "},"X":{"ha":1164,"x_min":99,"x_max":1065,"o":"m 124 353 l 324 554 l 99 779 l 261 942 l 697 506 l 811 621 l 811 917 l 1040 917 l 1040 525 l 858 344 l 1065 138 l 903 -25 l 488 392 l 353 258 l 353 0 l 124 0 l 124 353 z "},"Y":{"ha":1047,"x_min":75,"x_max":947,"o":"m 947 917 l 718 917 l 718 385 l 253 933 l 75 786 l 550 229 l 97 229 l 97 0 l 947 0 l 947 917 z "},"Z":{"ha":1114,"x_min":99,"x_max":1014,"o":"m 99 690 l 785 690 l 99 342 l 99 0 l 1014 0 l 1014 229 l 326 229 l 1013 571 l 1013 917 l 99 917 l 99 690 z "},"[":{"ha":543,"x_min":99,"x_max":443,"o":"m 329 764 l 329 39 l 443 39 l 443 -192 l 99 -192 l 99 993 l 443 993 l 443 764 l 329 764 z "},"\\":{"ha":933,"x_min":99,"x_max":835,"o":"m 639 -43 l 99 840 l 294 960 l 835 76 l 639 -43 z "},"]":{"ha":543,"x_min":99,"x_max":443,"o":"m 214 764 l 214 39 l 99 39 l 99 -192 l 443 -192 l 443 993 l 99 993 l 99 764 l 214 764 z "},"^":{"ha":747,"x_min":99,"x_max":647,"o":"m 647 656 l 517 528 l 374 658 l 231 525 l 99 654 l 372 917 l 647 656 z "},"_":{"ha":963,"x_min":99,"x_max":863,"o":"m 863 229 l 99 229 l 99 0 l 863 0 l 863 229 z "},"`":{"ha":685,"x_min":99,"x_max":585,"o":"m 585 608 l 257 939 l 99 767 l 425 444 l 585 608 z "},"a":{"ha":1133,"x_min":22,"x_max":1035,"o":"m 22 93 l 471 917 l 1035 917 l 1035 0 l 560 0 l 560 229 l 806 229 l 806 688 l 606 688 l 224 -18 l 22 93 z "},"b":{"ha":1065,"x_min":99,"x_max":965,"o":"m 808 765 l 614 574 l 965 574 l 965 0 l 99 0 l 99 915 l 808 915 l 808 765 m 331 229 l 736 229 l 736 344 l 331 344 l 331 229 m 464 708 l 331 708 l 331 574 l 464 708 z "},"c":{"ha":1115,"x_min":99,"x_max":1017,"o":"m 99 0 l 99 621 l 396 917 l 1017 917 l 1017 688 l 490 688 l 329 525 l 329 229 l 1017 229 l 1017 0 l 99 0 z "},"d":{"ha":1115,"x_min":99,"x_max":1017,"o":"m 1017 917 l 1017 296 l 719 0 l 99 0 l 99 917 l 1017 917 m 786 688 l 329 688 l 329 229 l 625 229 l 786 392 l 786 688 z "},"e":{"ha":1115,"x_min":99,"x_max":1017,"o":"m 1017 342 l 1017 917 l 99 917 l 99 0 l 1017 0 l 1017 229 l 329 229 l 329 689 l 786 689 l 786 574 l 597 574 l 597 342 l 1017 342 z "},"f":{"ha":1064,"x_min":99,"x_max":964,"o":"m 964 688 l 329 688 l 329 494 l 828 494 l 828 265 l 329 265 l 329 0 l 99 0 l 99 917 l 964 917 l 964 688 z "},"g":{"ha":1115,"x_min":99,"x_max":1017,"o":"m 1017 457 l 1017 0 l 99 0 l 99 917 l 1017 917 l 1017 688 l 329 688 l 329 228 l 786 228 l 786 457 l 1017 457 z "},"h":{"ha":1064,"x_min":99,"x_max":964,"o":"m 735 0 l 735 344 l 329 344 l 329 0 l 99 0 l 99 917 l 329 917 l 329 574 l 733 574 l 733 917 l 964 917 l 964 0 l 735 0 z "},"i":{"ha":428,"x_min":99,"x_max":329,"o":"m 329 0 l 99 0 l 99 917 l 329 917 l 329 0 z "},"j":{"ha":1039,"x_min":99,"x_max":939,"o":"m 939 0 l 939 917 l 711 917 l 711 229 l 99 229 l 99 0 l 939 0 z "},"k":{"ha":1064,"x_min":99,"x_max":964,"o":"m 735 0 l 735 344 l 329 344 l 329 0 l 99 0 l 99 917 l 329 917 l 329 574 l 674 917 l 964 917 l 619 574 l 964 574 l 964 0 l 735 0 z "},"l":{"ha":1039,"x_min":99,"x_max":939,"o":"m 99 0 l 99 917 l 329 917 l 329 229 l 939 229 l 939 0 l 99 0 z "},"m":{"ha":1307,"x_min":99,"x_max":1207,"o":"m 756 688 l 815 688 l 978 525 l 978 0 l 1207 0 l 1207 621 l 911 917 l 99 917 l 99 0 l 329 0 l 329 688 l 528 688 l 528 0 l 756 0 l 756 688 z "},"n":{"ha":1115,"x_min":99,"x_max":1017,"o":"m 329 688 l 329 0 l 99 0 l 99 917 l 719 917 l 1017 621 l 1017 0 l 786 0 l 786 525 l 625 688 l 329 688 z "},"o":{"ha":1115,"x_min":99,"x_max":1017,"o":"m 1017 917 l 1017 0 l 99 0 l 99 917 l 1017 917 m 786 688 l 329 688 l 329 229 l 786 229 l 786 688 z "},"p":{"ha":1118,"x_min":99,"x_max":1019,"o":"m 1019 917 l 103 917 l 103 914 l 99 914 l 99 -232 l 329 -232 l 329 0 l 682 0 l 1019 296 l 1019 917 m 786 685 l 786 388 l 628 229 l 332 229 l 332 685 l 786 685 z "},"q":{"ha":1115,"x_min":99,"x_max":1017,"o":"m 1017 917 l 99 917 l 99 0 l 329 0 l 329 688 l 786 688 l 786 229 l 750 229 l 728 285 q 722 298 728 285 q 706 339 717 311 l 493 256 l 594 0 l 1017 0 l 1017 917 z "},"r":{"ha":1064,"x_min":99,"x_max":964,"o":"m 99 0 l 99 917 l 964 917 l 964 344 l 619 344 l 964 0 l 674 0 l 329 344 l 329 0 l 99 0 m 735 688 l 329 688 l 329 574 l 735 574 l 735 688 z "},"s":{"ha":1115,"x_min":99,"x_max":1017,"o":"m 1014 690 l 329 690 l 329 574 l 1017 574 l 1017 0 l 99 0 l 99 229 l 786 229 l 786 342 l 99 342 l 99 917 l 1014 917 l 1014 690 z "},"t":{"ha":1065,"x_min":99,"x_max":965,"o":"m 481 686 l 481 229 l 836 229 l 836 -1 l 253 -1 l 253 686 l 99 686 l 99 914 l 965 914 l 965 686 l 481 686 z "},"u":{"ha":1115,"x_min":99,"x_max":1017,"o":"m 786 229 l 786 917 l 1017 917 l 1017 0 l 396 0 l 99 296 l 99 917 l 329 917 l 329 392 l 490 229 l 786 229 z "},"v":{"ha":1133,"x_min":99,"x_max":1111,"o":"m 1111 824 l 911 935 l 529 229 l 331 229 l 331 917 l 99 917 l 99 0 l 663 0 l 1111 824 z "},"w":{"ha":1307,"x_min":99,"x_max":1207,"o":"m 756 229 l 815 229 l 978 392 l 978 917 l 1207 917 l 1207 296 l 911 0 l 99 0 l 99 917 l 329 917 l 329 229 l 528 229 l 528 917 l 756 917 l 756 229 z "},"x":{"ha":1164,"x_min":99,"x_max":1065,"o":"m 124 353 l 324 554 l 99 779 l 261 942 l 697 506 l 811 621 l 811 917 l 1040 917 l 1040 525 l 858 344 l 1065 138 l 903 -25 l 488 392 l 353 258 l 353 0 l 124 0 l 124 353 z "},"y":{"ha":1029,"x_min":58,"x_max":931,"o":"m 931 917 l 701 917 l 701 385 l 235 933 l 58 786 l 533 229 l 81 229 l 81 0 l 931 0 l 931 917 z "},"z":{"ha":1114,"x_min":99,"x_max":1014,"o":"m 99 690 l 785 690 l 99 342 l 99 0 l 1014 0 l 1014 229 l 326 229 l 1013 571 l 1013 917 l 99 917 l 99 690 z "},"{":{"ha":793,"x_min":99,"x_max":693,"o":"m 99 581 l 311 581 l 311 917 l 693 917 l 693 688 l 540 688 l 540 229 l 693 229 l 693 0 l 311 0 l 311 332 l 99 332 l 99 581 z "},"|":{"ha":428,"x_min":99,"x_max":329,"o":"m 329 -192 l 329 1101 l 99 1101 l 99 -192 l 329 -192 z "},"}":{"ha":793,"x_min":99,"x_max":693,"o":"m 693 581 l 481 581 l 481 917 l 99 917 l 99 688 l 253 688 l 253 229 l 99 229 l 99 0 l 481 0 l 481 332 l 693 332 l 693 581 z "},"~":{"ha":889,"x_min":99,"x_max":790,"o":"m 99 364 l 372 626 l 515 494 l 658 628 l 790 500 l 517 236 l 374 368 l 231 235 l 99 364 z "},"":{"ha":332,"x_min":0,"x_max":0,"o":""},"€":{"ha":1347,"x_min":99,"x_max":1249,"o":"m 332 0 l 332 174 l 99 174 l 99 403 l 332 403 l 332 518 l 101 518 l 101 747 l 458 747 l 628 917 l 1249 917 l 1249 688 l 828 688 l 828 518 l 561 518 l 561 403 l 826 403 l 826 229 l 1249 229 l 1249 0 l 332 0 z "},"‚":{"ha":429,"x_min":99,"x_max":331,"o":"m 101 249 l 99 -211 l 331 -211 l 331 249 l 101 249 z "},"ƒ":{"ha":2279,"x_min":99,"x_max":2181,"o":"m 2181 600 q 2178 596 2181 599 l 2151 535 l 2028 535 l 2111 418 q 2113 403 2113 417 l 2113 392 q 2068 329 2113 340 l 1931 357 l 1917 183 q 1864 150 1901 150 q 1724 211 1814 150 l 1588 49 l 1517 33 l 1435 122 l 1174 -25 l 1131 -10 l 1131 79 l 789 19 l 746 49 l 760 122 l 401 153 l 401 211 l 443 256 l 224 299 q 182 357 182 299 l 265 432 l 113 507 l 99 581 l 250 608 l 168 711 l 182 800 l 347 785 q 408 993 347 993 l 415 993 l 568 933 q 733 1108 668 1082 l 857 1022 l 1104 1156 l 1160 1108 l 1146 1065 l 1160 1051 l 1435 1108 l 1531 1096 l 1517 1008 l 1847 1008 l 1876 978 q 1819 889 1876 906 l 2096 815 q 2097 804 2097 814 l 2097 796 q 2000 711 2097 725 q 2181 600 2181 644 m 2138 581 l 2124 608 l 1901 728 l 2042 771 l 2057 771 l 2042 800 l 1724 874 l 1833 963 l 1463 963 l 1489 1065 l 1131 1008 l 1118 1096 l 1090 1108 l 842 978 l 733 1065 l 582 889 q 564 885 571 886 q 551 883 557 883 q 415 947 500 883 l 388 743 l 210 758 l 224 696 l 319 565 l 140 550 l 374 418 l 224 346 l 554 268 l 443 183 l 828 167 l 789 64 l 1131 138 l 1174 79 l 1160 19 l 1435 167 l 1560 79 l 1697 256 l 1876 196 l 1889 403 l 2068 372 q 2074 386 2074 379 q 1958 565 2074 429 l 2138 581 m 1868 682 l 1839 492 l 1800 499 l 1808 697 l 1868 682 m 1846 411 l 1806 369 l 1776 401 l 1808 428 l 1846 411 m 1743 426 q 1594 554 1682 426 l 1594 428 l 1557 424 l 1553 682 l 1693 517 l 1700 697 l 1743 683 l 1743 426 m 1513 428 l 1482 439 q 1425 499 1457 499 q 1364 439 1396 499 l 1314 439 q 1345 568 1321 504 q 1414 696 1369 632 q 1446 704 1428 704 q 1508 624 1492 704 l 1513 428 m 1285 697 l 1272 442 l 1215 424 l 1240 688 l 1285 697 m 1171 417 q 1021 544 1108 417 l 1021 418 l 982 411 l 978 672 l 1118 507 l 1126 688 l 1171 672 l 1171 417 m 950 597 q 856 417 928 417 q 835 414 844 415 q 815 413 825 413 q 733 458 750 413 q 825 683 733 622 q 835 685 832 685 q 838 686 839 686 l 851 686 q 950 597 929 686 m 715 693 l 711 629 q 697 634 704 633 q 683 635 690 635 q 619 597 649 635 q 581 493 581 550 q 635 443 581 443 q 653 444 642 443 q 681 449 665 446 l 683 404 q 635 393 650 393 q 539 508 563 393 q 538 526 539 519 q 538 543 538 533 q 715 693 538 663 m 513 688 l 500 432 l 443 411 l 468 678 l 513 688 m 1467 554 l 1438 640 l 1389 554 l 1467 554 m 906 561 q 897 593 906 581 q 853 625 881 625 q 781 544 810 625 q 779 525 779 543 q 819 461 779 461 q 848 468 832 461 q 883 486 864 475 q 906 561 906 525 z "},"„":{"ha":760,"x_min":99,"x_max":660,"o":"m 431 249 l 431 -211 l 660 -211 l 660 249 l 431 249 m 99 247 l 99 -212 l 329 -212 l 329 247 l 99 247 z "},"…":{"ha":1086,"x_min":99,"x_max":988,"o":"m 758 249 l 988 249 l 988 0 l 758 0 l 758 249 m 99 249 l 329 249 l 329 0 l 99 0 l 99 249 m 428 249 l 657 249 l 657 0 l 428 0 l 428 249 z "},"†":{"ha":963,"x_min":99,"x_max":863,"o":"m 863 746 l 863 517 l 589 517 l 589 0 l 358 0 l 358 517 l 99 517 l 99 746 l 358 746 l 358 917 l 589 917 l 589 746 l 863 746 z "},"‡":{"ha":964,"x_min":99,"x_max":865,"o":"m 863 401 l 863 172 l 590 172 l 590 0 l 361 0 l 361 172 l 99 172 l 99 401 l 361 401 l 361 517 l 101 517 l 101 746 l 361 746 l 361 917 l 590 917 l 590 746 l 865 746 l 865 517 l 590 517 l 590 401 l 863 401 z "},"ˆ":{"ha":747,"x_min":99,"x_max":647,"o":"m 647 658 l 517 531 l 374 661 l 231 529 l 99 657 l 372 919 l 647 658 z "},"‰":{"ha":1989,"x_min":99,"x_max":1890,"o":"m 547 -43 l 351 76 l 890 960 l 1086 840 l 547 -43 m 235 606 l 422 606 l 422 792 l 235 792 l 235 606 m 558 928 l 558 469 l 99 469 l 99 928 l 558 928 m 1032 136 l 1218 136 l 1218 322 l 1032 322 l 1032 136 m 1354 458 l 1354 0 l 896 0 l 896 458 l 1354 458 m 1568 136 l 1754 136 l 1754 322 l 1568 322 l 1568 136 m 1890 458 l 1890 0 l 1432 0 l 1432 458 l 1890 458 z "},"Š":{"ha":1115,"x_min":99,"x_max":1017,"o":"m 1014 690 l 329 690 l 329 574 l 1017 574 l 1017 0 l 99 0 l 99 229 l 786 229 l 786 342 l 99 342 l 99 917 l 1014 917 l 1014 690 m 275 1228 l 407 1357 l 549 1225 l 692 1358 l 824 1231 l 550 967 l 275 1228 z "},"‹":{"ha":590,"x_min":99,"x_max":490,"o":"m 363 719 l 490 586 l 357 446 l 489 301 l 361 171 l 99 446 l 363 719 z "},"Œ":{"ha":1804,"x_min":99,"x_max":1706,"o":"m 99 0 l 99 621 l 396 917 l 1706 917 l 1706 342 l 1286 342 l 1286 574 l 1476 574 l 1476 689 l 1018 689 l 1018 229 l 1706 229 l 1706 0 l 99 0 m 789 688 l 490 688 l 329 525 l 329 229 l 789 229 l 789 688 z "},"Ž":{"ha":1114,"x_min":99,"x_max":1014,"o":"m 785 690 l 99 690 l 99 917 l 1013 917 l 1013 571 l 326 229 l 1014 229 l 1014 0 l 99 0 l 99 342 l 785 690 m 274 1228 l 404 1357 l 547 1225 l 690 1358 l 822 1231 l 549 967 l 274 1228 z "},"‘":{"ha":428,"x_min":99,"x_max":329,"o":"m 329 458 l 99 458 l 99 917 l 329 917 l 329 458 z "},"’":{"ha":428,"x_min":99,"x_max":329,"o":"m 329 458 l 99 458 l 99 917 l 329 917 l 329 458 z "},"“":{"ha":764,"x_min":99,"x_max":665,"o":"m 665 458 l 665 917 l 435 917 l 435 458 l 665 458 m 329 457 l 329 915 l 99 915 l 99 457 l 329 457 z "},"”":{"ha":764,"x_min":99,"x_max":665,"o":"m 665 458 l 665 917 l 435 917 l 435 458 l 665 458 m 329 457 l 329 915 l 99 915 l 99 457 l 329 457 z "},"•":{"ha":657,"x_min":99,"x_max":558,"o":"m 558 688 l 558 229 l 99 229 l 99 688 l 558 688 z "},"–":{"ha":963,"x_min":99,"x_max":863,"o":"m 863 574 l 863 344 l 99 344 l 99 574 l 863 574 z "},"—":{"ha":1150,"x_min":99,"x_max":1051,"o":"m 1051 571 l 99 574 l 99 342 l 1051 342 l 1051 571 z "},"˜":{"ha":889,"x_min":99,"x_max":790,"o":"m 99 651 l 372 914 l 515 782 l 658 915 l 790 786 l 517 524 l 374 656 l 231 522 l 99 651 z "},"™":{"ha":2082,"x_min":99,"x_max":1983,"o":"m 1983 568 q 1982 563 1983 563 l 1958 507 l 1846 507 l 1922 400 q 1923 388 1922 393 q 1924 378 1924 382 q 1883 319 1924 331 l 1758 347 l 1746 188 q 1697 158 1731 158 q 1641 172 1672 158 q 1571 213 1610 186 l 1447 65 l 1385 51 l 1310 133 l 1072 0 l 1035 14 l 1035 93 l 722 42 l 686 65 l 697 133 l 372 161 l 372 213 l 411 254 l 211 293 q 176 347 176 293 l 250 414 l 113 483 l 99 549 l 235 574 l 163 667 l 176 747 l 324 733 q 379 922 324 922 l 388 922 l 525 868 q 674 1026 610 1001 l 785 949 l 1010 1068 l 1060 1026 l 1047 988 l 1060 974 l 1310 1026 l 1396 1014 l 1385 936 l 1682 936 l 1708 908 q 1657 828 1708 842 l 1907 761 q 1909 751 1908 754 q 1910 743 1910 747 q 1821 667 1910 681 q 1983 568 1983 604 m 1701 640 l 1649 654 l 1639 474 l 1675 468 l 1701 640 m 1681 394 l 1649 410 l 1618 388 l 1646 358 l 1681 394 m 1588 408 l 1588 640 l 1550 654 l 1543 492 l 1415 640 l 1419 404 l 1453 410 l 1453 525 q 1588 408 1532 408 m 1378 410 l 1375 586 q 1318 661 1361 661 q 1292 653 1306 661 q 1200 419 1208 538 l 1246 419 q 1300 474 1272 474 q 1353 419 1329 474 l 1378 410 m 1174 654 l 1132 646 l 1111 404 l 1163 422 l 1174 654 m 1069 400 l 1069 632 l 1028 646 l 1022 483 l 893 631 l 899 394 l 933 400 l 933 515 q 1069 400 1013 400 m 869 564 q 779 644 850 644 l 768 644 q 756 640 765 644 q 674 438 674 588 q 749 396 688 396 q 765 397 757 396 q 785 400 774 399 q 869 564 849 400 m 657 651 q 497 515 497 622 q 498 500 497 506 q 499 483 499 494 q 583 379 519 379 q 605 381 594 379 q 628 389 615 382 l 626 429 q 583 424 611 424 q 536 471 536 424 q 569 564 536 519 q 628 597 599 597 q 640 597 635 597 q 651 593 646 596 l 657 651 m 472 646 l 432 638 l 411 394 l 463 414 l 472 646 m 1339 525 l 1268 525 l 1311 601 l 1339 525 m 829 531 q 826 497 829 514 q 811 463 822 481 q 751 440 772 440 q 717 500 717 440 l 717 515 q 782 589 744 589 q 824 560 807 589 q 829 531 829 550 z "},"š":{"ha":1115,"x_min":99,"x_max":1017,"o":"m 1014 690 l 329 690 l 329 574 l 1017 574 l 1017 0 l 99 0 l 99 229 l 786 229 l 786 342 l 99 342 l 99 917 l 1014 917 l 1014 690 m 275 1228 l 407 1357 l 549 1225 l 692 1358 l 824 1231 l 550 967 l 275 1228 z "},"›":{"ha":590,"x_min":99,"x_max":490,"o":"m 228 719 l 99 586 l 232 446 l 101 301 l 229 171 l 490 446 l 228 719 z "},"œ":{"ha":1804,"x_min":99,"x_max":1706,"o":"m 99 0 l 99 621 l 396 917 l 1706 917 l 1706 342 l 1286 342 l 1286 574 l 1476 574 l 1476 689 l 1018 689 l 1018 229 l 1706 229 l 1706 0 l 99 0 m 789 688 l 490 688 l 329 525 l 329 229 l 789 229 l 789 688 z "},"ž":{"ha":1114,"x_min":99,"x_max":1014,"o":"m 785 690 l 99 690 l 99 917 l 1013 917 l 1013 571 l 326 229 l 1014 229 l 1014 0 l 99 0 l 99 342 l 785 690 m 274 1228 l 404 1357 l 547 1225 l 690 1358 l 822 1231 l 549 967 l 274 1228 z "},"Ÿ":{"ha":1071,"x_min":99,"x_max":972,"o":"m 972 917 l 743 917 l 743 385 l 276 933 l 99 786 l 575 229 l 122 229 l 122 0 l 972 0 l 972 917 m 661 1356 l 661 1106 l 890 1106 l 890 1356 l 661 1356 m 224 1356 l 224 1106 l 453 1106 l 453 1356 l 224 1356 z "},"¡":{"ha":428,"x_min":99,"x_max":329,"o":"m 99 628 l 99 0 l 329 0 l 329 628 l 99 628 m 99 917 l 99 668 l 329 668 l 329 917 l 99 917 z "},"¢":{"ha":1115,"x_min":99,"x_max":1017,"o":"m 768 -185 l 539 -185 l 539 0 l 99 0 l 99 621 l 396 917 l 539 917 l 539 1108 l 769 1108 l 769 917 l 1017 917 l 1017 688 l 768 688 l 768 229 l 1017 229 l 1017 0 l 768 0 l 768 -185 m 539 688 l 490 688 l 329 525 l 329 229 l 539 229 l 539 688 z "},"£":{"ha":1064,"x_min":99,"x_max":964,"o":"m 964 229 l 964 0 l 99 0 l 99 917 l 329 917 l 329 651 l 828 651 l 828 422 l 329 422 l 329 229 l 964 229 z "},"¤":{"ha":1164,"x_min":99,"x_max":1065,"o":"m 811 917 l 1040 917 l 1040 525 l 858 344 l 1065 138 l 903 -25 l 650 229 l 353 229 l 353 0 l 124 0 l 124 353 l 324 554 l 99 779 l 261 942 l 515 688 l 813 688 l 811 917 m 701 556 l 471 556 l 471 353 l 701 353 l 701 556 z "},"¥":{"ha":1354,"x_min":99,"x_max":1254,"o":"m 1253 411 l 1253 182 l 972 182 l 972 0 l 122 0 l 122 229 l 575 229 l 99 786 l 276 933 l 743 385 l 743 917 l 972 917 l 972 754 l 1254 754 l 1254 525 l 972 525 l 972 411 l 1253 411 z "},"¦":{"ha":431,"x_min":99,"x_max":332,"o":"m 329 485 l 332 917 l 99 917 l 99 485 l 329 485 m 332 0 l 331 392 l 103 392 l 103 0 l 332 0 z "},"§":{"ha":1121,"x_min":99,"x_max":1022,"o":"m 1014 842 l 329 842 l 329 725 l 1022 725 l 1022 -192 l 106 -192 l 106 39 l 793 39 l 793 151 l 99 151 l 99 1068 l 1014 1068 l 1014 842 m 786 493 l 335 493 l 335 382 l 786 382 l 786 493 z "},"¨":{"ha":867,"x_min":99,"x_max":767,"o":"m 538 917 l 538 668 l 767 668 l 767 917 l 538 917 m 99 917 l 99 668 l 329 668 l 329 917 l 99 917 z "},"©":{"ha":1115,"x_min":99,"x_max":1017,"o":"m 1017 917 l 1017 0 l 99 0 l 99 917 l 1017 917 m 786 688 l 329 688 l 329 229 l 789 229 l 789 381 l 478 381 l 478 535 l 789 535 l 786 688 z "},"ª":{"ha":1633,"x_min":99,"x_max":1533,"o":"m 1533 713 l 1474 728 l 1465 525 l 1503 519 l 1533 713 m 1511 439 l 1474 456 l 1440 431 l 1471 399 l 1511 439 m 1407 454 l 1407 713 l 1365 728 l 1357 547 l 1215 713 l 1221 450 l 1257 456 l 1257 583 q 1407 454 1346 454 m 1174 456 l 1171 653 q 1108 735 1156 735 q 1078 725 1093 735 q 976 468 985 596 l 1026 468 q 1088 525 1058 525 q 1146 468 1118 525 l 1174 456 m 947 728 l 901 718 l 876 450 l 935 469 l 947 728 m 831 444 l 831 703 l 785 718 l 779 536 l 636 701 l 642 439 l 681 444 l 681 574 q 831 444 765 444 m 610 626 q 508 717 589 717 l 497 717 q 483 713 493 717 q 392 486 392 651 q 475 440 406 440 q 494 442 485 440 q 515 444 503 443 q 610 626 586 444 m 372 722 q 194 571 194 693 q 195 556 194 563 q 197 536 196 549 q 292 422 218 422 q 315 424 304 422 q 340 432 326 425 l 339 476 q 292 471 322 471 q 239 522 239 471 q 276 626 239 581 q 340 665 306 665 q 367 658 353 665 l 372 722 m 168 718 l 124 707 l 99 439 l 157 460 l 168 718 m 1131 583 l 1051 583 l 1100 669 l 1131 583 m 565 590 q 561 552 565 571 q 544 515 557 533 q 478 489 499 489 q 439 554 439 489 l 439 574 q 513 654 471 654 q 558 622 539 654 q 565 590 565 608 z "},"«":{"ha":1029,"x_min":99,"x_max":931,"o":"m 363 719 l 490 586 l 357 446 l 489 301 l 361 171 l 99 446 l 363 719 m 801 722 l 931 590 l 797 449 l 929 304 l 800 174 l 539 449 l 801 722 z "},"¬":{"ha":963,"x_min":99,"x_max":863,"o":"m 863 574 l 863 119 l 635 119 l 635 344 l 99 344 l 99 574 l 863 574 z "},"­":{"ha":682,"x_min":99,"x_max":582,"o":"m 582 571 l 99 574 l 99 342 l 582 342 l 582 571 z "},"®":{"ha":1115,"x_min":99,"x_max":1017,"o":"m 1017 917 l 1017 0 l 99 0 l 99 917 l 1017 917 m 786 688 l 329 688 l 329 229 l 481 229 l 481 535 l 789 535 l 786 688 z "},"¯":{"ha":963,"x_min":99,"x_max":863,"o":"m 863 1144 l 99 1144 l 99 915 l 863 915 l 863 1144 z "},"°":{"ha":428,"x_min":99,"x_max":329,"o":"m 99 917 l 99 668 l 329 668 l 329 917 l 99 917 z "},"±":{"ha":964,"x_min":99,"x_max":865,"o":"m 367 732 l 367 928 l 597 928 l 597 732 l 863 732 l 863 503 l 596 503 l 596 329 l 368 329 l 368 503 l 99 503 l 99 732 l 367 732 m 865 229 l 865 0 l 101 0 l 101 229 l 865 229 z "},"²":{"ha":657,"x_min":99,"x_max":558,"o":"m 99 804 l 422 804 l 422 776 l 99 776 l 99 479 l 558 479 l 558 615 l 235 615 l 235 640 l 558 640 l 558 938 l 99 938 l 99 804 z "},"³":{"ha":657,"x_min":99,"x_max":558,"o":"m 99 615 l 422 615 l 422 640 l 99 640 l 99 778 l 422 778 l 422 804 l 99 804 l 99 938 l 558 938 l 558 479 l 99 479 l 99 615 z "},"´":{"ha":685,"x_min":99,"x_max":585,"o":"m 99 608 l 428 939 l 585 767 l 260 444 l 99 608 z "},"µ":{"ha":1071,"x_min":99,"x_max":972,"o":"m 99 917 l 329 917 l 329 385 l 794 933 l 972 786 l 497 229 l 949 229 l 949 0 l 99 0 l 99 917 z "},"¶":{"ha":1064,"x_min":99,"x_max":964,"o":"m 735 688 l 671 688 l 671 274 l 389 0 l 99 0 l 444 344 l 99 344 l 99 917 l 964 917 l 964 0 l 735 0 l 735 688 z "},"·":{"ha":428,"x_min":99,"x_max":329,"o":"m 99 563 l 99 314 l 329 314 l 329 563 l 99 563 z "},"¸":{"ha":607,"x_min":99,"x_max":507,"o":"m 99 -126 l 229 0 l 507 0 l 231 -256 l 99 -126 z "},"¹":{"ha":567,"x_min":99,"x_max":468,"o":"m 101 483 l 468 483 l 468 617 l 397 617 l 397 939 l 99 939 l 99 804 l 264 804 l 264 617 l 101 617 l 101 483 z "},"º":{"ha":657,"x_min":99,"x_max":558,"o":"m 235 617 l 422 617 l 422 804 l 235 804 l 235 617 m 558 939 l 558 481 l 99 481 l 99 939 l 558 939 z "},"»":{"ha":1029,"x_min":99,"x_max":931,"o":"m 668 719 l 539 586 l 672 446 l 540 301 l 669 171 l 931 446 l 668 719 m 228 722 l 99 590 l 232 449 l 101 304 l 229 174 l 490 449 l 228 722 z "},"¼":{"ha":1271,"x_min":99,"x_max":1172,"o":"m 101 594 l 264 594 l 264 781 l 99 781 l 99 917 l 397 917 l 397 594 l 468 594 l 468 460 l 101 460 l 101 594 m 475 -43 l 279 76 l 819 960 l 1014 840 l 475 -43 m 1036 0 l 1036 307 l 926 219 l 1006 219 l 1006 85 l 693 85 l 693 215 l 1003 458 l 1172 458 l 1172 0 l 1036 0 z "},"½":{"ha":1404,"x_min":99,"x_max":1304,"o":"m 1014 840 l 819 960 l 279 76 l 475 -43 l 1014 840 m 101 460 l 468 460 l 468 594 l 397 594 l 397 917 l 99 917 l 99 781 l 264 781 l 264 594 l 101 594 l 101 460 m 846 324 l 1169 324 l 1169 296 l 846 296 l 846 0 l 1304 0 l 1304 136 l 982 136 l 982 161 l 1304 161 l 1304 458 l 846 458 l 846 324 z "},"¾":{"ha":1374,"x_min":99,"x_max":1274,"o":"m 578 -43 l 382 76 l 921 960 l 1117 840 l 578 -43 m 1139 0 l 1139 307 l 1028 219 l 1108 219 l 1108 85 l 796 85 l 796 215 l 1104 458 l 1274 458 l 1274 0 l 1139 0 m 99 583 l 422 583 l 422 608 l 99 608 l 99 746 l 422 746 l 422 771 l 99 771 l 99 906 l 558 906 l 558 447 l 99 447 l 99 583 z "},"¿":{"ha":1115,"x_min":99,"x_max":1017,"o":"m 1014 226 l 329 226 l 329 344 l 1017 344 l 1017 575 l 99 575 l 99 0 l 1014 0 l 1014 226 m 1017 668 l 1017 917 l 786 917 l 786 668 l 1017 668 z "},"À":{"ha":1115,"x_min":99,"x_max":1017,"o":"m 99 575 l 99 0 l 1017 0 l 1017 917 l 99 917 l 99 688 l 786 688 l 786 228 l 329 228 l 329 344 l 518 344 l 518 575 l 99 575 m 725 1096 l 458 1357 l 314 1226 l 594 967 l 725 1096 z "},"Á":{"ha":1115,"x_min":99,"x_max":1017,"o":"m 99 0 l 99 575 l 518 575 l 518 344 l 329 344 l 329 228 l 786 228 l 786 688 l 99 688 l 99 917 l 1017 917 l 1017 0 l 99 0 m 389 1096 l 657 1357 l 801 1226 l 521 967 l 389 1096 z "},"Â":{"ha":1115,"x_min":99,"x_max":1017,"o":"m 99 0 l 99 575 l 518 575 l 518 344 l 329 344 l 329 228 l 786 228 l 786 688 l 99 688 l 99 917 l 1017 917 l 1017 0 l 99 0 m 825 1097 l 693 968 l 551 1100 l 408 967 l 276 1096 l 550 1358 l 825 1097 z "},"Ã":{"ha":1115,"x_min":99,"x_max":1017,"o":"m 99 0 l 99 575 l 518 575 l 518 344 l 329 344 l 329 228 l 786 228 l 786 688 l 99 688 l 99 917 l 1017 917 l 1017 0 l 99 0 m 214 1097 l 488 1360 l 629 1228 l 774 1361 l 904 1233 l 631 969 l 489 1101 l 346 968 l 214 1097 z "},"Ä":{"ha":1115,"x_min":99,"x_max":1017,"o":"m 99 575 l 99 0 l 1017 0 l 1017 917 l 99 917 l 99 688 l 786 688 l 786 228 l 329 228 l 329 344 l 518 344 l 518 575 l 99 575 m 661 1356 l 661 1106 l 890 1106 l 890 1356 l 661 1356 m 224 1356 l 224 1106 l 453 1106 l 453 1356 l 224 1356 z "},"Å":{"ha":1115,"x_min":99,"x_max":1017,"o":"m 99 575 l 99 0 l 1017 0 l 1017 917 l 99 917 l 99 688 l 786 688 l 786 228 l 329 228 l 329 344 l 518 344 l 518 575 l 99 575 m 433 1353 l 433 1103 l 663 1103 l 663 1353 l 433 1353 z "},"Æ":{"ha":1800,"x_min":3,"x_max":1700,"o":"m 3 93 l 450 917 l 1700 917 l 1700 342 l 1282 342 l 1282 574 l 1471 574 l 1471 689 l 1014 689 l 1014 229 l 1700 229 l 1700 0 l 539 0 l 539 229 l 783 229 l 783 688 l 585 688 l 203 -18 l 3 93 z "},"Ç":{"ha":1115,"x_min":99,"x_max":1017,"o":"m 349 -126 l 478 0 l 99 0 l 99 621 l 396 917 l 1017 917 l 1017 688 l 490 688 l 329 525 l 329 229 l 1017 229 l 1017 0 l 756 0 l 479 -256 l 349 -126 z "},"È":{"ha":1115,"x_min":99,"x_max":1017,"o":"m 1017 342 l 1017 917 l 99 917 l 99 0 l 1017 0 l 1017 229 l 329 229 l 329 689 l 786 689 l 786 574 l 597 574 l 597 342 l 1017 342 m 725 1096 l 458 1357 l 314 1226 l 594 967 l 725 1096 z "},"É":{"ha":1115,"x_min":99,"x_max":1017,"o":"m 1017 917 l 1017 342 l 597 342 l 597 574 l 786 574 l 786 689 l 329 689 l 329 229 l 1017 229 l 1017 0 l 99 0 l 99 917 l 1017 917 m 389 1096 l 657 1357 l 801 1226 l 521 967 l 389 1096 z "},"Ê":{"ha":1115,"x_min":99,"x_max":1017,"o":"m 1017 917 l 1017 342 l 597 342 l 597 574 l 786 574 l 786 689 l 329 689 l 329 229 l 1017 229 l 1017 0 l 99 0 l 99 917 l 1017 917 m 825 1097 l 693 968 l 551 1100 l 408 967 l 276 1096 l 550 1358 l 825 1097 z "},"Ë":{"ha":1115,"x_min":99,"x_max":1017,"o":"m 1017 342 l 1017 917 l 99 917 l 99 0 l 1017 0 l 1017 229 l 329 229 l 329 689 l 786 689 l 786 574 l 597 574 l 597 342 l 1017 342 m 661 1356 l 661 1106 l 890 1106 l 890 1356 l 661 1356 m 224 1356 l 224 1106 l 453 1106 l 453 1356 l 224 1356 z "},"Ì":{"ha":443,"x_min":13,"x_max":425,"o":"m 101 917 l 101 0 l 331 0 l 331 917 l 101 917 m 425 1093 l 157 1354 l 13 1224 l 293 964 l 425 1093 z "},"Í":{"ha":443,"x_min":13,"x_max":425,"o":"m 336 917 l 336 0 l 107 0 l 107 917 l 336 917 m 13 1093 l 279 1354 l 425 1224 l 143 964 l 13 1093 z "},"Î":{"ha":443,"x_min":-51,"x_max":497,"o":"m 336 917 l 336 0 l 107 0 l 107 917 l 336 917 m 497 1094 l 365 965 l 224 1097 l 79 964 l -51 1093 l 221 1356 l 497 1094 z "},"Ï":{"ha":443,"x_min":-111,"x_max":556,"o":"m 336 0 l 336 917 l 107 917 l 107 0 l 336 0 m 326 1353 l 326 1103 l 556 1103 l 556 1353 l 326 1353 m -111 1353 l -111 1103 l 118 1103 l 118 1353 l -111 1353 z "},"Ð":{"ha":1325,"x_min":99,"x_max":1225,"o":"m 1225 917 l 1225 296 l 929 0 l 308 0 l 308 342 l 99 342 l 99 569 l 308 569 l 308 917 l 1225 917 m 740 571 l 740 342 l 538 342 l 538 229 l 835 229 l 996 392 l 996 688 l 538 688 l 538 571 l 740 571 z "},"Ñ":{"ha":1307,"x_min":99,"x_max":1207,"o":"m 329 688 l 329 0 l 99 0 l 99 917 l 911 917 l 1207 621 l 1207 0 l 978 0 l 978 525 l 815 688 l 329 688 m 229 1099 l 503 1361 l 644 1231 l 789 1363 l 919 1235 l 646 972 l 504 1103 l 361 969 l 229 1099 z "},"Ò":{"ha":1115,"x_min":99,"x_max":1017,"o":"m 329 229 l 329 688 l 786 688 l 786 229 l 329 229 m 1017 917 l 99 917 l 99 0 l 1017 0 l 1017 917 m 725 1096 l 458 1357 l 314 1226 l 594 967 l 725 1096 z "},"Ó":{"ha":1115,"x_min":99,"x_max":1017,"o":"m 786 229 l 786 688 l 329 688 l 329 229 l 786 229 m 99 917 l 1017 917 l 1017 0 l 99 0 l 99 917 m 389 1096 l 657 1357 l 801 1226 l 521 967 l 389 1096 z "},"Ô":{"ha":1115,"x_min":99,"x_max":1017,"o":"m 1017 917 l 1017 0 l 99 0 l 99 917 l 1017 917 m 786 688 l 329 688 l 329 229 l 786 229 l 786 688 m 825 1097 l 693 968 l 551 1100 l 408 967 l 276 1096 l 550 1358 l 825 1097 z "},"Õ":{"ha":1115,"x_min":99,"x_max":1017,"o":"m 1017 917 l 1017 0 l 99 0 l 99 917 l 1017 917 m 786 688 l 329 688 l 329 229 l 786 229 l 786 688 m 217 1094 l 490 1357 l 632 1225 l 776 1358 l 907 1231 l 635 967 l 492 1099 l 349 965 l 217 1094 z "},"Ö":{"ha":1115,"x_min":99,"x_max":1017,"o":"m 1017 917 l 99 917 l 99 0 l 1017 0 l 1017 917 m 786 688 l 786 229 l 329 229 l 329 688 l 786 688 m 661 1356 l 661 1106 l 890 1106 l 890 1356 l 661 1356 m 224 1356 l 224 1106 l 453 1106 l 453 1356 l 224 1356 z "},"×":{"ha":682,"x_min":99,"x_max":582,"o":"m 111 353 l 111 178 l 226 178 l 226 306 l 293 372 l 501 165 l 582 246 l 478 349 l 569 440 l 569 636 l 456 636 l 456 488 l 397 429 l 181 647 l 99 567 l 211 454 l 111 353 z "},"Ø":{"ha":1115,"x_min":99,"x_max":1017,"o":"m 1017 917 l 1017 0 l 99 0 l 99 917 l 1017 917 m 569 688 l 329 688 l 329 292 l 569 688 m 786 613 l 543 229 l 786 229 l 786 613 z "},"Ù":{"ha":1115,"x_min":99,"x_max":1017,"o":"m 99 917 l 99 0 l 1017 0 l 1017 917 l 786 917 l 786 229 l 329 229 l 329 917 l 99 917 m 725 1096 l 458 1357 l 314 1226 l 594 967 l 725 1096 z "},"Ú":{"ha":1115,"x_min":99,"x_max":1017,"o":"m 1017 917 l 1017 0 l 99 0 l 99 917 l 329 917 l 329 229 l 786 229 l 786 917 l 1017 917 m 389 1096 l 657 1357 l 801 1226 l 521 967 l 389 1096 z "},"Û":{"ha":1115,"x_min":99,"x_max":1017,"o":"m 1017 917 l 1017 0 l 99 0 l 99 917 l 329 917 l 329 229 l 786 229 l 786 917 l 1017 917 m 825 1097 l 693 968 l 551 1100 l 408 967 l 276 1096 l 550 1358 l 825 1097 z "},"Ü":{"ha":1115,"x_min":99,"x_max":1017,"o":"m 1017 0 l 1017 917 l 786 917 l 786 229 l 329 229 l 329 917 l 99 917 l 99 0 l 1017 0 m 661 1356 l 661 1106 l 890 1106 l 890 1356 l 661 1356 m 224 1356 l 224 1106 l 453 1106 l 453 1356 l 224 1356 z "},"Ý":{"ha":1032,"x_min":60,"x_max":932,"o":"m 703 917 l 932 917 l 932 0 l 82 0 l 82 229 l 535 229 l 60 786 l 236 933 l 703 385 l 703 917 m 350 1096 l 617 1357 l 763 1226 l 481 967 l 350 1096 z "},"Þ":{"ha":1065,"x_min":99,"x_max":965,"o":"m 99 0 l 99 917 l 329 917 l 329 743 l 965 743 l 965 169 l 331 169 l 331 0 l 99 0 m 736 514 l 331 514 l 331 399 l 736 399 l 736 514 z "},"ß":{"ha":1115,"x_min":99,"x_max":1017,"o":"m 329 -192 l 329 690 l 786 690 l 786 575 l 485 575 l 485 342 l 786 342 l 786 229 l 485 229 l 485 0 l 1017 0 l 1017 917 l 99 917 l 99 -192 l 329 -192 z "},"à":{"ha":1119,"x_min":10,"x_max":1021,"o":"m 10 93 l 210 -18 l 592 688 l 792 688 l 792 229 l 546 229 l 546 0 l 1021 0 l 1021 917 l 457 917 l 10 93 m 897 1096 l 629 1357 l 485 1226 l 765 967 l 897 1096 z "},"á":{"ha":1117,"x_min":6,"x_max":1018,"o":"m 206 -18 l 6 93 l 454 917 l 1018 917 l 1018 0 l 543 0 l 543 229 l 789 229 l 789 688 l 589 688 l 206 -18 m 506 1099 l 774 1360 l 918 1231 l 638 969 l 506 1099 z "},"â":{"ha":1119,"x_min":10,"x_max":1021,"o":"m 210 -18 l 10 93 l 457 917 l 1021 917 l 1021 0 l 546 0 l 546 229 l 792 229 l 792 688 l 592 688 l 210 -18 m 978 1094 l 846 965 l 704 1097 l 561 964 l 429 1093 l 703 1356 l 978 1094 z "},"ã":{"ha":1149,"x_min":22,"x_max":1050,"o":"m 224 -18 l 22 93 l 471 917 l 1035 917 l 1035 0 l 560 0 l 560 229 l 806 229 l 806 688 l 606 688 l 224 -18 m 358 1088 l 632 1350 l 775 1219 l 918 1353 l 1050 1224 l 776 961 l 635 1093 l 490 960 l 358 1088 z "},"ä":{"ha":1139,"x_min":28,"x_max":1039,"o":"m 28 93 l 228 -18 l 610 688 l 810 688 l 810 229 l 564 229 l 564 0 l 1039 0 l 1039 917 l 475 917 l 28 93 m 806 1353 l 806 1103 l 1035 1103 l 1035 1353 l 806 1353 m 367 1353 l 367 1103 l 596 1103 l 596 1353 l 367 1353 z "},"å":{"ha":1126,"x_min":15,"x_max":1026,"o":"m 15 93 l 215 -18 l 597 688 l 797 688 l 797 229 l 551 229 l 551 0 l 1026 0 l 1026 917 l 463 917 l 15 93 m 593 1357 l 593 1108 l 822 1108 l 822 1357 l 593 1357 z "},"æ":{"ha":1808,"x_min":13,"x_max":1710,"o":"m 13 93 l 460 917 l 1710 917 l 1710 342 l 1292 342 l 1292 574 l 1481 574 l 1481 689 l 1024 689 l 1024 229 l 1710 229 l 1710 0 l 549 0 l 549 229 l 793 229 l 793 688 l 594 688 l 213 -18 l 13 93 z "},"ç":{"ha":1115,"x_min":99,"x_max":1017,"o":"m 367 -126 l 497 0 l 99 0 l 99 621 l 396 917 l 1017 917 l 1017 688 l 490 688 l 329 525 l 329 229 l 1017 229 l 1017 0 l 775 0 l 499 -256 l 367 -126 z "},"è":{"ha":1115,"x_min":99,"x_max":1017,"o":"m 1017 342 l 1017 917 l 99 917 l 99 0 l 1017 0 l 1017 229 l 329 229 l 329 689 l 786 689 l 786 574 l 597 574 l 597 342 l 1017 342 m 725 1096 l 458 1357 l 314 1226 l 594 967 l 725 1096 z "},"é":{"ha":1115,"x_min":99,"x_max":1017,"o":"m 1017 917 l 1017 342 l 597 342 l 597 574 l 786 574 l 786 689 l 329 689 l 329 229 l 1017 229 l 1017 0 l 99 0 l 99 917 l 1017 917 m 389 1096 l 657 1357 l 801 1226 l 521 967 l 389 1096 z "},"ê":{"ha":1115,"x_min":99,"x_max":1017,"o":"m 1017 917 l 1017 342 l 597 342 l 597 574 l 786 574 l 786 689 l 329 689 l 329 229 l 1017 229 l 1017 0 l 99 0 l 99 917 l 1017 917 m 825 1097 l 693 968 l 551 1100 l 408 967 l 276 1096 l 550 1358 l 825 1097 z "},"ë":{"ha":1115,"x_min":99,"x_max":1017,"o":"m 1017 342 l 1017 917 l 99 917 l 99 0 l 1017 0 l 1017 229 l 329 229 l 329 689 l 786 689 l 786 574 l 597 574 l 597 342 l 1017 342 m 661 1356 l 661 1106 l 890 1106 l 890 1356 l 661 1356 m 224 1356 l 224 1106 l 453 1106 l 453 1356 l 224 1356 z "},"ì":{"ha":443,"x_min":13,"x_max":425,"o":"m 101 917 l 101 0 l 331 0 l 331 917 l 101 917 m 425 1093 l 157 1354 l 13 1224 l 293 964 l 425 1093 z "},"í":{"ha":443,"x_min":13,"x_max":425,"o":"m 336 917 l 336 0 l 107 0 l 107 917 l 336 917 m 13 1093 l 279 1354 l 425 1224 l 143 964 l 13 1093 z "},"î":{"ha":443,"x_min":-51,"x_max":497,"o":"m 336 917 l 336 0 l 107 0 l 107 917 l 336 917 m 497 1094 l 365 965 l 224 1097 l 79 964 l -51 1093 l 221 1356 l 497 1094 z "},"ï":{"ha":443,"x_min":-111,"x_max":556,"o":"m 336 0 l 336 917 l 107 917 l 107 0 l 336 0 m 326 1353 l 326 1103 l 556 1103 l 556 1353 l 326 1353 m -111 1353 l -111 1103 l 118 1103 l 118 1353 l -111 1353 z "},"ð":{"ha":1115,"x_min":99,"x_max":1017,"o":"m 99 575 l 99 0 l 1017 0 l 1017 917 l 99 917 l 99 688 l 786 688 l 786 575 l 99 575 m 329 342 l 786 342 l 786 228 l 329 228 l 329 342 z "},"ñ":{"ha":1115,"x_min":99,"x_max":1017,"o":"m 329 688 l 329 0 l 99 0 l 99 917 l 719 917 l 1017 621 l 1017 0 l 786 0 l 786 525 l 625 688 l 329 688 m 158 1097 l 432 1360 l 575 1228 l 718 1361 l 850 1233 l 576 969 l 433 1101 l 290 968 l 158 1097 z "},"ò":{"ha":1115,"x_min":99,"x_max":1017,"o":"m 329 229 l 329 688 l 786 688 l 786 229 l 329 229 m 1017 917 l 99 917 l 99 0 l 1017 0 l 1017 917 m 725 1096 l 458 1357 l 314 1226 l 594 967 l 725 1096 z "},"ó":{"ha":1115,"x_min":99,"x_max":1017,"o":"m 786 229 l 786 688 l 329 688 l 329 229 l 786 229 m 99 917 l 1017 917 l 1017 0 l 99 0 l 99 917 m 389 1096 l 657 1357 l 801 1226 l 521 967 l 389 1096 z "},"ô":{"ha":1115,"x_min":99,"x_max":1017,"o":"m 1017 917 l 1017 0 l 99 0 l 99 917 l 1017 917 m 786 688 l 329 688 l 329 229 l 786 229 l 786 688 m 825 1097 l 693 968 l 551 1100 l 408 967 l 276 1096 l 550 1358 l 825 1097 z "},"õ":{"ha":1115,"x_min":99,"x_max":1017,"o":"m 1017 917 l 1017 0 l 99 0 l 99 917 l 1017 917 m 786 688 l 329 688 l 329 229 l 786 229 l 786 688 m 206 1096 l 479 1358 l 622 1226 l 765 1360 l 897 1232 l 624 968 l 481 1100 l 338 967 l 206 1096 z "},"ö":{"ha":1115,"x_min":99,"x_max":1017,"o":"m 1017 917 l 99 917 l 99 0 l 1017 0 l 1017 917 m 786 688 l 786 229 l 329 229 l 329 688 l 786 688 m 661 1356 l 661 1106 l 890 1106 l 890 1356 l 661 1356 m 224 1356 l 224 1106 l 453 1106 l 453 1356 l 224 1356 z "},"÷":{"ha":1150,"x_min":99,"x_max":1051,"o":"m 1051 571 l 99 574 l 99 342 l 1051 342 l 1051 571 m 464 943 l 464 693 l 693 693 l 693 943 l 464 943 m 463 249 l 463 0 l 692 0 l 692 249 l 463 249 z "},"ø":{"ha":1115,"x_min":99,"x_max":1017,"o":"m 1017 917 l 1017 0 l 99 0 l 99 917 l 1017 917 m 569 688 l 329 688 l 329 292 l 569 688 m 786 613 l 543 229 l 786 229 l 786 613 z "},"ù":{"ha":1115,"x_min":99,"x_max":1017,"o":"m 786 917 l 786 229 l 490 229 l 329 392 l 329 917 l 99 917 l 99 296 l 396 0 l 1017 0 l 1017 917 l 786 917 m 725 1096 l 458 1357 l 314 1226 l 594 967 l 725 1096 z "},"ú":{"ha":1115,"x_min":99,"x_max":1017,"o":"m 786 229 l 786 917 l 1017 917 l 1017 0 l 396 0 l 99 296 l 99 917 l 329 917 l 329 392 l 490 229 l 786 229 m 389 1096 l 657 1357 l 801 1226 l 521 967 l 389 1096 z "},"û":{"ha":1115,"x_min":99,"x_max":1017,"o":"m 786 229 l 786 917 l 1017 917 l 1017 0 l 396 0 l 99 296 l 99 917 l 329 917 l 329 392 l 490 229 l 786 229 m 825 1097 l 693 968 l 551 1100 l 408 967 l 276 1096 l 550 1358 l 825 1097 z "},"ü":{"ha":1115,"x_min":99,"x_max":1017,"o":"m 786 917 l 786 229 l 490 229 l 329 392 l 329 917 l 99 917 l 99 296 l 396 0 l 1017 0 l 1017 917 l 786 917 m 661 1356 l 661 1106 l 890 1106 l 890 1356 l 661 1356 m 224 1356 l 224 1106 l 453 1106 l 453 1356 l 224 1356 z "},"ý":{"ha":1029,"x_min":58,"x_max":931,"o":"m 701 917 l 931 917 l 931 0 l 81 0 l 81 229 l 533 229 l 58 786 l 235 933 l 701 385 l 701 917 m 349 1096 l 615 1357 l 761 1226 l 479 967 l 349 1096 z "},"þ":{"ha":1065,"x_min":99,"x_max":965,"o":"m 99 0 l 99 917 l 329 917 l 329 743 l 965 743 l 965 169 l 331 169 l 331 0 l 99 0 m 736 514 l 331 514 l 331 399 l 736 399 l 736 514 z "},"ÿ":{"ha":1032,"x_min":60,"x_max":932,"o":"m 932 917 l 703 917 l 703 385 l 236 933 l 60 786 l 535 229 l 82 229 l 82 0 l 932 0 l 932 917 m 622 1356 l 622 1106 l 851 1106 l 851 1356 l 622 1356 m 183 1356 l 183 1106 l 413 1106 l 413 1356 l 183 1356 z "}}}
